<?xml version="1.0" encoding="UTF-8" standalone="no"?>
<svg
   width="120px"
   height="120px"
   viewBox="0 0 35.544788 35.265884"
   version="1.1"
   id="svg5"
   xml:space="preserve"
   xmlns="http://www.w3.org/2000/svg"
   xmlns:svg="http://www.w3.org/2000/svg"><defs
     id="defs2" /><g
     id="layer1"
     style="display:inline"
     transform="translate(-16.885929,-120.61184)"><path
       id="path748-6-4"
       style="display:inline;fill:#424242;fill-opacity:1;stroke:#000000;stroke-width:0;stroke-linecap:butt;stroke-linejoin:miter;stroke-dasharray:none;stroke-opacity:1"
       d="m 37.802333,121.67024 c -1.497405,-0.0181 -2.671076,4.4103 -2.920667,5.76529 -3.145982,1.21991 -9.266215,3.54379 -9.266215,3.54379 0,0 -2.753022,-3.47575 -4.404562,-4.70576 -0.857995,-0.63899 -2.124594,0.26553 -2.402317,1.91715 -1.350428,8.03088 -0.413905,21.74828 2.745371,24.28201 2.834584,2.27333 10.239835,3.11553 16.336509,1.53477 6.096666,-1.58078 12.745609,-5.91319 13.178816,-9.08656 0.550351,-4.0315 -4.976632,-6.7387 -4.976632,-6.7387 0,0 -5.569577,-13.47198 -7.32146,-15.85875 -0.333294,-0.45409 -0.65806,-0.64946 -0.968843,-0.65324 z m 3.096907,11.3985 c 0.286253,0.0387 2.735454,3.00433 2.326449,7.00956 -0.108828,1.06574 -0.505331,1.9161 -1.037172,2.59097 a 6.6457424,1.7482309 74.77542 0 0 -0.833129,-4.66411 6.6457424,1.7482309 74.77542 0 0 -1.951824,-4.55213 c 0.76723,-0.32983 1.375377,-0.35513 1.495676,-0.38429 z m -3.538918,2.00376 a 6.6457424,1.7482309 74.77542 0 0 0.82936,4.59282 6.6457424,1.7482309 74.77542 0 0 1.994234,4.61434 c -1.095474,0.56436 -2.12004,0.74085 -2.359906,0.70061 -0.453458,-0.32647 -2.439983,-6.63912 -0.919365,-9.23011 0.146035,-0.24883 0.298785,-0.47374 0.455677,-0.67766 z m -13.006817,2.9652 a 7.2654335,2.4699817 76.801118 0 0 0.550393,6.2027 7.2654335,2.4699817 76.801118 0 0 1.158748,3.21071 c -1.202796,-0.2303 -2.262217,-0.79198 -2.884854,-1.91713 -1.593813,-2.88016 -1.639738,-5.88752 -0.836899,-7.21201 0.625636,-0.16324 1.306542,-0.26211 2.012612,-0.28427 z m 3.921082,0.73508 c 0.719643,0.31643 1.40967,0.74233 2.037587,1.29405 2.265458,1.99056 2.909584,5.87344 2.735946,6.50085 -0.436685,0.12227 -1.590926,0.50148 -2.97957,0.76044 a 7.2654335,2.4699817 76.801118 0 0 -0.639456,-5.3566 7.2654335,2.4699817 76.801118 0 0 -1.154507,-3.19874 z" /></g></svg>
