<?xml version="1.0" encoding="UTF-8" standalone="no"?>

<svg
   width="36.07814mm"
   height="35.795052mm"
   viewBox="0 0 36.07814 35.795052"
   version="1.1"
   id="svg5"
   xml:space="preserve"
   xmlns="http://www.w3.org/2000/svg"
   xmlns:svg="http://www.w3.org/2000/svg"><defs
     id="defs2" /><g
     id="layer1"
     style="display:inline"
     transform="translate(-16.885929,-120.08268)"><path
       id="path748-6-4"
       style="display:inline;fill:#e9d8c4;fill-opacity:1;stroke:#000000;stroke-width:0;stroke-linecap:butt;stroke-linejoin:miter;stroke-dasharray:none;stroke-opacity:1"
       d="m 38.37283,120.08274 c -1.642107,-0.0196 -2.929195,4.76232 -3.202905,6.22546 -3.449994,1.31727 -10.161654,3.82664 -10.161654,3.82664 0,0 -3.01906,-3.75318 -4.830196,-5.08135 -0.940908,-0.69 -2.329905,0.28672 -2.634465,2.07016 -1.480926,8.67187 -0.453903,23.48414 3.010669,26.2201 3.108504,2.45478 11.22936,3.3642 17.915186,1.65727 6.685816,-1.70695 13.977278,-6.38515 14.452348,-9.81181 0.603534,-4.35328 -5.457548,-7.27655 -5.457548,-7.27655 0,0 -6.107792,-14.54727 -8.028968,-17.12454 -0.365503,-0.49033 -0.721652,-0.7013 -1.062467,-0.70538 z m 3.396175,12.30829 c 0.313916,0.0418 2.999795,3.24412 2.551265,7.56904 -0.119344,1.15079 -0.554163,2.06902 -1.137398,2.79777 a 7.1839589,1.9150945 74.515202 0 0 -0.913639,-5.03639 7.1839589,1.9150945 74.515202 0 0 -2.140438,-4.91546 c 0.841372,-0.35616 1.508287,-0.38347 1.64021,-0.41496 z m -3.8809,2.16369 a 7.1839589,1.9150945 74.515202 0 0 0.909505,4.95939 7.1839589,1.9150945 74.515202 0 0 2.186947,4.98264 c -1.201336,0.60941 -2.32491,0.79999 -2.587956,0.75654 -0.497277,-0.35254 -2.67577,-7.16904 -1.008207,-9.96683 0.160146,-0.26869 0.327658,-0.51155 0.499711,-0.73174 z m -14.263729,3.20187 a 7.8517732,2.7064453 76.549806 0 0 0.603581,6.69778 7.8517732,2.7064453 76.549806 0 0 1.270723,3.46697 c -1.319028,-0.24869 -2.480826,-0.85519 -3.163631,-2.07015 -1.747831,-3.11004 -1.798194,-6.35744 -0.917773,-7.78764 0.686095,-0.17628 1.432799,-0.28304 2.2071,-0.30696 z m 4.299996,0.79375 c 0.789185,0.34169 1.545893,0.80157 2.234489,1.39733 2.484379,2.14945 3.190751,6.34224 3.000334,7.01973 -0.478885,0.13203 -1.744666,0.5415 -3.267501,0.82114 a 7.8517732,2.7064453 76.549806 0 0 -0.701249,-5.78415 7.8517732,2.7064453 76.549806 0 0 -1.266073,-3.45405 z" /></g></svg>
