<?xml version="1.0" encoding="UTF-8" standalone="no"?>

<svg
   viewBox="0 0 75.630516 22.571854"
   version="1.1"
   id="svg5"
   xml:space="preserve"
   xmlns="http://www.w3.org/2000/svg"
   xmlns:svg="http://www.w3.org/2000/svg"><defs
     id="defs2">
     <style type="text/css">
        @font-face {
          font-family: Lexenddeca;
          src: url(font/lexenddeca-variablefont_wght-webfont.woff);}

        path{
          font-family: Lexenddeca
          font-weight:600;
          fill:#1D1D1D;
        }
      </style>
       </defs><g
     id="layer1"
     style="display:inline"
     transform="translate(-62.991647,-249.6508)"><path
       id="path748-8-0-0-1"
       style="stroke:#000000;stroke-width:0;stroke-linecap:butt;stroke-linejoin:miter;stroke-opacity:0"
       d="m 129.42393,249.73348 c -1.02587,-0.0121 -1.82993,2.97484 -2.00093,3.88888 -2.15529,0.82295 -6.34825,2.39062 -6.34825,2.39062 0,0 -1.88607,-2.34439 -3.01754,-3.17412 -0.58781,-0.43108 -1.45555,0.17878 -1.6458,1.29296 -0.92519,5.41751 -0.2836,14.67113 1.88084,16.38034 1.94196,1.53355 7.01489,2.1017 11.19172,1.03533 4.1768,-1.06636 8.73228,-3.98896 9.02908,-6.12967 0.37704,-2.71962 -3.40947,-4.54554 -3.40947,-4.54554 0,0 -3.81568,-9.08803 -5.0159,-10.6981 -0.22834,-0.30634 -0.45082,-0.43814 -0.66375,-0.4407 z m 2.2492,7.68931 c 0.18075,0.0263 1.72716,2.02638 1.46889,4.72825 -0.0753,0.78738 -0.3683,1.40071 -0.75316,1.87471 a 3.8934503,1.2922123 77.547471 0 0 -0.24341,-3.03434 3.8934503,1.2922123 77.547471 0 0 -1.57221,-3.23189 c 0.55583,-0.29582 1.01601,-0.315 1.09989,-0.33673 z m -2.2195,1.33073 a 3.8934503,1.2922123 77.547471 0 0 0.23535,3.08984 3.8934503,1.2922123 77.547471 0 0 1.48893,3.1664 c -0.67538,0.36219 -1.29865,0.475 -1.44697,0.44841 -0.28632,-0.22024 -1.54063,-4.47901 -0.58045,-6.22685 0.097,-0.17653 0.19866,-0.33469 0.30314,-0.4778 z m -9.24342,2.02095 a 4.9051985,1.6907838 76.549806 0 0 0.37704,4.18459 4.9051985,1.6907838 76.549806 0 0 0.79421,2.16559 c -0.82414,-0.15537 -1.55012,-0.5342 -1.97673,-1.29328 -1.09191,-1.94293 -1.1237,-3.97166 -0.57368,-4.86513 0.42862,-0.11013 0.89539,-0.17684 1.37916,-0.19177 z m 2.6863,0.49619 c 0.49303,0.21355 0.96577,0.50076 1.39595,0.87295 1.55205,1.34281 1.99334,3.96215 1.87439,4.3854 -0.2992,0.0825 -1.09014,0.33835 -2.04164,0.51299 a 4.9051985,1.6907838 76.549806 0 0 -0.43773,-3.61383 4.9051985,1.6907838 76.549806 0 0 -0.79097,-2.15751 z" /><g
       aria-label="tealine."
       transform="matrix(0.26458333,0,0,0.26458333,19.259921,191.80878)"
       id="text13337-4-2"
       style="font-size:53.3333px;line-height:0;white-space:pre;shape-inside:url(#rect13339-9);display:inline"><path
         d="m 170.56526,303.33983 v -35.35997 h 7.57333 v 35.35997 z m -5.28,-21.43998 v -6.77333 h 18.66666 v 6.77333 z"
         id="path402-7" /><path
         d="m 201.97857,303.87317 q -4.58667,0 -8.05333,-1.86667 -3.41333,-1.86666 -5.33333,-5.12 -1.86667,-3.25333 -1.86667,-7.46666 0,-3.30666 1.06667,-6.02666 1.06667,-2.72 2.98666,-4.69333 1.92,-2.02667 4.53333,-3.09333 2.66667,-1.12 5.76,-1.12 2.88,0 5.33333,1.06666 2.45333,1.06667 4.21333,2.98667 1.81333,1.86666 2.77333,4.48 0.96,2.55999 0.85334,5.54666 l -0.0533,2.34666 h -22.66665 l -1.22667,-4.63999 h 17.65333 l -0.85334,0.96 v -1.17334 q -0.10666,-1.43999 -0.95999,-2.55999 -0.8,-1.17334 -2.08,-1.81334 -1.28,-0.69333 -2.88,-0.69333 -2.34667,0 -4,0.90667 -1.6,0.90666 -2.45333,2.66666 -0.85333,1.76 -0.85333,4.26667 0,2.55999 1.06666,4.42666 1.12,1.86667 3.09333,2.93333 2.02667,1.01333 4.74667,1.01333 1.86666,0 3.41333,-0.58666 1.54666,-0.58667 3.30666,-2.02667 l 3.62667,5.06667 q -1.54667,1.38666 -3.41333,2.34666 -1.86667,0.90667 -3.84,1.38667 -1.97333,0.48 -3.89333,0.48 z"
         id="path404-0" /><path
         d="m 230.40524,303.87317 q -3.52,0 -6.34666,-1.92 -2.82667,-1.92 -4.48,-5.22667 -1.65333,-3.30666 -1.65333,-7.57332 0,-4.26667 1.65333,-7.57333 1.70667,-3.30667 4.58666,-5.17333 2.88,-1.86667 6.56,-1.86667 2.08,0 3.78666,0.64 1.76,0.58667 3.04,1.65333 1.33334,1.06667 2.24,2.45334 0.90667,1.38666 1.28,2.98666 l -1.6,-0.26667 v -6.87999 h 7.52 v 28.21331 h -7.62666 v -6.77333 l 1.70666,-0.15999 q -0.42667,1.49333 -1.38667,2.82666 -0.95999,1.33333 -2.39999,2.4 -1.38667,1.01333 -3.14667,1.65333 -1.76,0.58667 -3.73333,0.58667 z m 2.08,-6.56 q 2.13333,0 3.73333,-1.01333 1.6,-1.01333 2.45333,-2.82667 0.90667,-1.86666 0.90667,-4.31999 0,-2.4 -0.90667,-4.21333 -0.85333,-1.81334 -2.45333,-2.82667 -1.6,-1.06667 -3.73333,-1.06667 -2.08,0 -3.68,1.06667 -1.54666,1.01333 -2.45333,2.82667 -0.90667,1.81333 -0.90667,4.21333 0,2.45333 0.90667,4.31999 0.90667,1.81334 2.45333,2.82667 1.6,1.01333 3.68,1.01333 z"
         id="path406-7" /><path
         d="m 254.61851,303.33983 v -39.46664 h 7.57333 v 39.46664 z"
         id="path408-9" /><path
         d="m 270.51187,303.33983 v -28.21331 h 7.57333 v 28.21331 z m 3.73333,-33.97331 q -2.18667,0 -3.41333,-1.06666 -1.22667,-1.12 -1.22667,-3.09334 0,-1.81333 1.22667,-2.93333 1.28,-1.17333 3.41333,-1.17333 2.18667,0 3.41333,1.12 1.22667,1.06666 1.22667,2.98666 0,1.81334 -1.28,2.98667 -1.22667,1.17333 -3.36,1.17333 z"
         id="path410-5" /><path
         d="m 286.19185,303.33983 v -28.21331 h 7.25333 l 0.21333,5.75999 -1.49333,0.64 q 0.58666,-1.91999 2.07999,-3.46666 1.54667,-1.6 3.68,-2.56 2.13333,-0.96 4.48,-0.96 3.2,0 5.33333,1.28 2.18667,1.28 3.25333,3.89333 1.12,2.56 1.12,6.34666 v 17.27999 h -7.57333 v -16.69332 q 0,-1.92 -0.53333,-3.2 -0.53333,-1.28 -1.65333,-1.86666 -1.06667,-0.58667 -2.66667,-0.53334 -1.28,0 -2.4,0.42667 -1.06666,0.37333 -1.86666,1.12 -0.74667,0.74667 -1.22667,1.70667 -0.42666,0.95999 -0.42666,2.07999 v 16.95999 h -3.73334 q -1.22666,0 -2.18666,0 -0.96,0 -1.65333,0 z"
         id="path412-1" /><path
         d="m 332.7518,303.87317 q -4.58666,0 -8.05333,-1.86667 -3.41333,-1.86666 -5.33333,-5.12 -1.86667,-3.25333 -1.86667,-7.46666 0,-3.30666 1.06667,-6.02666 1.06667,-2.72 2.98667,-4.69333 1.91999,-2.02667 4.53333,-3.09333 2.66666,-1.12 5.75999,-1.12 2.88,0 5.33333,1.06666 2.45333,1.06667 4.21333,2.98667 1.81334,1.86666 2.77334,4.48 0.96,2.55999 0.85333,5.54666 l -0.0533,2.34666 H 322.2985 l -1.22666,-4.63999 h 17.65332 l -0.85333,0.96 v -1.17334 q -0.10667,-1.43999 -0.96,-2.55999 -0.8,-1.17334 -2.08,-1.81334 -1.28,-0.69333 -2.88,-0.69333 -2.34667,0 -4,0.90667 -1.6,0.90666 -2.45333,2.66666 -0.85333,1.76 -0.85333,4.26667 0,2.55999 1.06666,4.42666 1.12,1.86667 3.09333,2.93333 2.02667,1.01333 4.74667,1.01333 1.86666,0 3.41333,-0.58666 1.54667,-0.58667 3.30666,-2.02667 l 3.62667,5.06667 q -1.54667,1.38666 -3.41333,2.34666 -1.86667,0.90667 -3.84,1.38667 -1.97333,0.48 -3.89333,0.48 z"
         id="path414-0" /><path
         d="m 353.44515,303.9265 q -2.08,0 -3.2,-1.17333 -1.12,-1.17333 -1.12,-3.36 0,-1.97333 1.17333,-3.2 1.22667,-1.28 3.14667,-1.28 2.02666,0 3.14666,1.17334 1.12,1.17333 1.12,3.30666 0,2.02667 -1.17333,3.30666 -1.17333,1.22667 -3.09333,1.22667 z"
         id="path416-5" /></g></g></svg>
